<svg width="225" height="225" viewBox="0 0 225 225" fill="none" xmlns="http://www.w3.org/2000/svg">
<rect width="225" height="225" rx="112.5" fill="#2B2D39"/>
<path d="M112.369 37.9455H69.3824V69.3492H112.533C126.282 69.3492 138.529 75.779 146.43 85.7957C152.957 81.4545 172.129 69.0005 168.017 75.3247C167.256 76.4964 155.175 91.3209 152.053 95.148C154.388 100.458 155.684 106.328 155.684 112.5C155.684 136.331 136.365 155.651 112.533 155.651C104.61 155.651 97.1857 153.515 90.8042 149.789C102.435 141.437 126.31 118.521 126.31 118.521C126.31 118.521 98.9191 137.445 83.131 144.083C73.2353 148.424 52.4966 154.252 50.6511 152.738C48.7393 151.169 61.3013 139.576 73.1753 132.325C73.4401 132.164 73.7033 132.013 73.9647 131.872C71.0331 126.047 69.3824 119.466 69.3824 112.5V101.965H38.1432V112.829C38.1432 153.823 71.3751 187.055 112.369 187.055C149.001 187.055 179.462 160.635 185.738 125.811C172.137 119.21 160.535 117.824 160.535 117.824C160.535 117.824 172.779 116.396 186.857 109.324C185.193 69.622 152.48 37.9455 112.369 37.9455Z" fill="white"/>
</svg>
